<mxfile host="app.diagrams.net" modified="2021-02-15T08:04:45.120Z" agent="5.0 (Windows NT 10.0; Win64; x64) AppleWebKit/537.36 (KHTML, like Gecko) Chrome/88.0.4324.150 Safari/537.36" etag="Trm5eWc7BSvNLn--zb5h" version="14.3.1" type="github">
  <diagram id="eep23TEpH9YFJXfYMCp3" name="Page-1">
    <mxGraphModel dx="1501" dy="397" grid="1" gridSize="10" guides="1" tooltips="1" connect="1" arrows="1" fold="1" page="1" pageScale="1" pageWidth="850" pageHeight="1100" math="0" shadow="0">
      <root>
        <mxCell id="0" />
        <mxCell id="1" parent="0" />
        <mxCell id="KftTdbNhHA2uExKty297-1" style="edgeStyle=orthogonalEdgeStyle;rounded=0;orthogonalLoop=1;jettySize=auto;html=1;exitX=0;exitY=0.75;exitDx=0;exitDy=0;entryX=0.69;entryY=0.023;entryDx=0;entryDy=0;entryPerimeter=0;curved=1;" parent="1" source="KftTdbNhHA2uExKty297-7" target="KftTdbNhHA2uExKty297-10" edge="1">
          <mxGeometry relative="1" as="geometry">
            <mxPoint x="390" y="75" as="sourcePoint" />
          </mxGeometry>
        </mxCell>
        <mxCell id="KftTdbNhHA2uExKty297-2" style="edgeStyle=orthogonalEdgeStyle;rounded=0;orthogonalLoop=1;jettySize=auto;html=1;exitX=0.5;exitY=1;exitDx=0;exitDy=0;entryX=0.75;entryY=0;entryDx=0;entryDy=0;curved=1;" parent="1" source="KftTdbNhHA2uExKty297-7" target="KftTdbNhHA2uExKty297-8" edge="1">
          <mxGeometry relative="1" as="geometry">
            <mxPoint x="420" y="75" as="sourcePoint" />
          </mxGeometry>
        </mxCell>
        <mxCell id="KftTdbNhHA2uExKty297-3" style="edgeStyle=orthogonalEdgeStyle;rounded=0;orthogonalLoop=1;jettySize=auto;html=1;exitX=0.917;exitY=1;exitDx=0;exitDy=0;entryX=0.558;entryY=-0.067;entryDx=0;entryDy=0;entryPerimeter=0;curved=1;exitPerimeter=0;" parent="1" source="KftTdbNhHA2uExKty297-7" edge="1">
          <mxGeometry relative="1" as="geometry">
            <mxPoint x="436.96000000000004" y="295.98" as="targetPoint" />
            <mxPoint x="450" y="75" as="sourcePoint" />
          </mxGeometry>
        </mxCell>
        <mxCell id="KftTdbNhHA2uExKty297-4" style="edgeStyle=orthogonalEdgeStyle;rounded=0;orthogonalLoop=1;jettySize=auto;html=1;exitX=0.95;exitY=0.983;exitDx=0;exitDy=0;curved=1;exitPerimeter=0;" parent="1" source="KftTdbNhHA2uExKty297-7" target="KftTdbNhHA2uExKty297-11" edge="1">
          <mxGeometry relative="1" as="geometry">
            <mxPoint x="480" y="75" as="sourcePoint" />
          </mxGeometry>
        </mxCell>
        <mxCell id="KftTdbNhHA2uExKty297-5" style="edgeStyle=orthogonalEdgeStyle;rounded=0;orthogonalLoop=1;jettySize=auto;html=1;exitX=1;exitY=0.75;exitDx=0;exitDy=0;curved=1;entryX=0.675;entryY=0.017;entryDx=0;entryDy=0;entryPerimeter=0;" parent="1" source="KftTdbNhHA2uExKty297-7" target="KftTdbNhHA2uExKty297-13" edge="1">
          <mxGeometry relative="1" as="geometry">
            <mxPoint x="510" y="75" as="sourcePoint" />
            <Array as="points">
              <mxPoint x="780" y="55" />
              <mxPoint x="780" y="260" />
              <mxPoint x="781" y="260" />
            </Array>
            <mxPoint x="790" y="260" as="targetPoint" />
          </mxGeometry>
        </mxCell>
        <mxCell id="KftTdbNhHA2uExKty297-6" style="edgeStyle=orthogonalEdgeStyle;rounded=0;orthogonalLoop=1;jettySize=auto;html=1;exitX=1;exitY=0.5;exitDx=0;exitDy=0;entryX=0.417;entryY=0;entryDx=0;entryDy=0;entryPerimeter=0;curved=1;" parent="1" source="KftTdbNhHA2uExKty297-7" target="KftTdbNhHA2uExKty297-50" edge="1">
          <mxGeometry relative="1" as="geometry">
            <mxPoint x="510" y="30" as="sourcePoint" />
          </mxGeometry>
        </mxCell>
        <mxCell id="KftTdbNhHA2uExKty297-7" value="Scheduler" style="rounded=0;whiteSpace=wrap;html=1;" parent="1" vertex="1">
          <mxGeometry x="340" y="10" width="120" height="60" as="geometry" />
        </mxCell>
        <mxCell id="KftTdbNhHA2uExKty297-8" value="Measure" style="rounded=0;whiteSpace=wrap;html=1;" parent="1" vertex="1">
          <mxGeometry x="210" y="305" width="120" height="60" as="geometry" />
        </mxCell>
        <mxCell id="KftTdbNhHA2uExKty297-9" value="Contactor" style="rounded=0;whiteSpace=wrap;html=1;" parent="1" vertex="1">
          <mxGeometry x="370" y="295" width="120" height="60" as="geometry" />
        </mxCell>
        <mxCell id="KftTdbNhHA2uExKty297-10" value="Alarm" style="rounded=0;whiteSpace=wrap;html=1;" parent="1" vertex="1">
          <mxGeometry x="65" y="315" width="120" height="60" as="geometry" />
        </mxCell>
        <mxCell id="KftTdbNhHA2uExKty297-11" value="State of Charge" style="rounded=0;whiteSpace=wrap;html=1;" parent="1" vertex="1">
          <mxGeometry x="520" y="295" width="120" height="60" as="geometry" />
        </mxCell>
        <mxCell id="KftTdbNhHA2uExKty297-13" value="Display" style="rounded=0;whiteSpace=wrap;html=1;" parent="1" vertex="1">
          <mxGeometry x="700" y="285" width="120" height="60" as="geometry" />
        </mxCell>
        <mxCell id="KftTdbNhHA2uExKty297-14" value="UpdateVoltage" style="rounded=0;whiteSpace=wrap;html=1;" parent="1" vertex="1">
          <mxGeometry x="170" y="435" width="120" height="60" as="geometry" />
        </mxCell>
        <mxCell id="KftTdbNhHA2uExKty297-15" value="UpdateCurrent" style="rounded=0;whiteSpace=wrap;html=1;align=center;" parent="1" vertex="1">
          <mxGeometry x="295" y="435" width="120" height="60" as="geometry" />
        </mxCell>
        <mxCell id="KftTdbNhHA2uExKty297-16" value="updateTemperature" style="rounded=0;whiteSpace=wrap;html=1;" parent="1" vertex="1">
          <mxGeometry x="430" y="435" width="120" height="60" as="geometry" />
        </mxCell>
        <mxCell id="KftTdbNhHA2uExKty297-17" value="updateHVIL" style="rounded=0;whiteSpace=wrap;html=1;" parent="1" vertex="1">
          <mxGeometry x="560" y="435" width="120" height="60" as="geometry" />
        </mxCell>
        <mxCell id="KftTdbNhHA2uExKty297-18" value="updateSOC" style="rounded=0;whiteSpace=wrap;html=1;" parent="1" vertex="1">
          <mxGeometry x="690" y="435" width="120" height="60" as="geometry" />
        </mxCell>
        <mxCell id="KftTdbNhHA2uExKty297-19" value="" style="endArrow=classic;html=1;strokeWidth=2;entryX=0.5;entryY=0;entryDx=0;entryDy=0;curved=1;exitX=1;exitY=0.75;exitDx=0;exitDy=0;" parent="1" source="KftTdbNhHA2uExKty297-11" target="KftTdbNhHA2uExKty297-18" edge="1">
          <mxGeometry width="50" height="50" relative="1" as="geometry">
            <mxPoint x="750" y="355" as="sourcePoint" />
            <mxPoint x="560" y="445" as="targetPoint" />
            <Array as="points">
              <mxPoint x="780" y="395" />
            </Array>
          </mxGeometry>
        </mxCell>
        <mxCell id="KftTdbNhHA2uExKty297-20" value="" style="endArrow=classic;html=1;strokeWidth=2;exitX=0;exitY=1;exitDx=0;exitDy=0;entryX=0.5;entryY=0;entryDx=0;entryDy=0;curved=1;" parent="1" source="KftTdbNhHA2uExKty297-8" target="KftTdbNhHA2uExKty297-14" edge="1">
          <mxGeometry width="50" height="50" relative="1" as="geometry">
            <mxPoint x="410" y="445" as="sourcePoint" />
            <mxPoint x="460" y="395" as="targetPoint" />
            <Array as="points">
              <mxPoint x="270" y="405" />
            </Array>
          </mxGeometry>
        </mxCell>
        <mxCell id="KftTdbNhHA2uExKty297-21" value="" style="endArrow=classic;html=1;strokeWidth=2;entryX=0.425;entryY=-0.05;entryDx=0;entryDy=0;entryPerimeter=0;curved=1;exitX=0.274;exitY=1.003;exitDx=0;exitDy=0;exitPerimeter=0;" parent="1" source="KftTdbNhHA2uExKty297-8" target="KftTdbNhHA2uExKty297-15" edge="1">
          <mxGeometry width="50" height="50" relative="1" as="geometry">
            <mxPoint x="340" y="405" as="sourcePoint" />
            <mxPoint x="480" y="365" as="targetPoint" />
            <Array as="points">
              <mxPoint x="381" y="405" />
            </Array>
          </mxGeometry>
        </mxCell>
        <mxCell id="KftTdbNhHA2uExKty297-22" value="" style="endArrow=classic;html=1;strokeWidth=2;exitX=0.75;exitY=1;exitDx=0;exitDy=0;entryX=0.417;entryY=0;entryDx=0;entryDy=0;entryPerimeter=0;curved=1;" parent="1" source="KftTdbNhHA2uExKty297-8" target="KftTdbNhHA2uExKty297-16" edge="1">
          <mxGeometry width="50" height="50" relative="1" as="geometry">
            <mxPoint x="480" y="395" as="sourcePoint" />
            <mxPoint x="530" y="345" as="targetPoint" />
            <Array as="points">
              <mxPoint x="470" y="405" />
            </Array>
          </mxGeometry>
        </mxCell>
        <mxCell id="KftTdbNhHA2uExKty297-23" value="" style="endArrow=classic;html=1;strokeWidth=2;exitX=1;exitY=1;exitDx=0;exitDy=0;entryX=0.5;entryY=0;entryDx=0;entryDy=0;curved=1;" parent="1" source="KftTdbNhHA2uExKty297-8" target="KftTdbNhHA2uExKty297-17" edge="1">
          <mxGeometry width="50" height="50" relative="1" as="geometry">
            <mxPoint x="480" y="435" as="sourcePoint" />
            <mxPoint x="530" y="385" as="targetPoint" />
            <Array as="points">
              <mxPoint x="640" y="415" />
            </Array>
          </mxGeometry>
        </mxCell>
        <mxCell id="KftTdbNhHA2uExKty297-24" value="contactorData" style="text;html=1;align=center;verticalAlign=middle;resizable=0;points=[];autosize=1;fontSize=8;" parent="1" vertex="1">
          <mxGeometry x="350" y="215" width="70" height="20" as="geometry" />
        </mxCell>
        <mxCell id="KftTdbNhHA2uExKty297-25" value="measureData" style="text;html=1;align=center;verticalAlign=middle;resizable=0;points=[];autosize=1;fontSize=8;" parent="1" vertex="1">
          <mxGeometry x="235" y="235" width="60" height="20" as="geometry" />
        </mxCell>
        <mxCell id="KftTdbNhHA2uExKty297-26" value="alarmData" style="text;html=1;align=center;verticalAlign=middle;resizable=0;points=[];autosize=1;fontSize=8;" parent="1" vertex="1">
          <mxGeometry x="100" y="225" width="50" height="20" as="geometry" />
        </mxCell>
        <mxCell id="KftTdbNhHA2uExKty297-27" value="updateVoltageOutRange" style="rounded=0;whiteSpace=wrap;html=1;" parent="1" vertex="1">
          <mxGeometry x="390" y="545" width="140" height="60" as="geometry" />
        </mxCell>
        <mxCell id="KftTdbNhHA2uExKty297-28" value="updateOvercurrent" style="rounded=0;whiteSpace=wrap;html=1;" parent="1" vertex="1">
          <mxGeometry x="200" y="560" width="120" height="60" as="geometry" />
        </mxCell>
        <mxCell id="KftTdbNhHA2uExKty297-29" value="updateHVILAlarm" style="rounded=0;whiteSpace=wrap;html=1;" parent="1" vertex="1">
          <mxGeometry y="455" width="120" height="60" as="geometry" />
        </mxCell>
        <mxCell id="KftTdbNhHA2uExKty297-30" value="" style="endArrow=classic;html=1;strokeWidth=2;fontSize=8;entryX=0.167;entryY=0;entryDx=0;entryDy=0;entryPerimeter=0;exitX=0.056;exitY=1.022;exitDx=0;exitDy=0;exitPerimeter=0;" parent="1" source="KftTdbNhHA2uExKty297-10" target="KftTdbNhHA2uExKty297-29" edge="1">
          <mxGeometry width="50" height="50" relative="1" as="geometry">
            <mxPoint x="280" y="535" as="sourcePoint" />
            <mxPoint x="330" y="485" as="targetPoint" />
          </mxGeometry>
        </mxCell>
        <mxCell id="KftTdbNhHA2uExKty297-31" value="" style="endArrow=classic;html=1;strokeWidth=2;fontSize=8;exitX=0.244;exitY=1.039;exitDx=0;exitDy=0;exitPerimeter=0;entryX=0.25;entryY=0;entryDx=0;entryDy=0;curved=1;" parent="1" source="KftTdbNhHA2uExKty297-10" target="KftTdbNhHA2uExKty297-28" edge="1">
          <mxGeometry width="50" height="50" relative="1" as="geometry">
            <mxPoint x="170" y="565" as="sourcePoint" />
            <mxPoint x="220" y="515" as="targetPoint" />
            <Array as="points">
              <mxPoint x="150" y="520" />
              <mxPoint x="210" y="540" />
            </Array>
          </mxGeometry>
        </mxCell>
        <mxCell id="KftTdbNhHA2uExKty297-32" value="" style="endArrow=classic;html=1;strokeWidth=2;fontSize=8;exitX=0.558;exitY=1.039;exitDx=0;exitDy=0;exitPerimeter=0;entryX=0.231;entryY=-0.022;entryDx=0;entryDy=0;entryPerimeter=0;curved=1;" parent="1" source="KftTdbNhHA2uExKty297-10" target="KftTdbNhHA2uExKty297-27" edge="1">
          <mxGeometry width="50" height="50" relative="1" as="geometry">
            <mxPoint x="310" y="555" as="sourcePoint" />
            <mxPoint x="360" y="505" as="targetPoint" />
            <Array as="points">
              <mxPoint x="150" y="420" />
              <mxPoint x="150" y="525" />
              <mxPoint x="418" y="515" />
            </Array>
          </mxGeometry>
        </mxCell>
        <mxCell id="KftTdbNhHA2uExKty297-33" value="" style="endArrow=classic;html=1;strokeWidth=1;startArrow=oval;startFill=0;" parent="1" edge="1">
          <mxGeometry width="50" height="50" relative="1" as="geometry">
            <mxPoint x="65" y="430" as="sourcePoint" />
            <mxPoint x="65" y="400" as="targetPoint" />
          </mxGeometry>
        </mxCell>
        <mxCell id="KftTdbNhHA2uExKty297-34" value="" style="endArrow=classic;html=1;strokeWidth=1;startArrow=oval;startFill=0;" parent="1" edge="1">
          <mxGeometry width="50" height="50" relative="1" as="geometry">
            <mxPoint x="250" y="550" as="sourcePoint" />
            <mxPoint x="235.00000000000023" y="530" as="targetPoint" />
          </mxGeometry>
        </mxCell>
        <mxCell id="KftTdbNhHA2uExKty297-35" value="" style="endArrow=classic;html=1;strokeWidth=1;startArrow=oval;startFill=0;" parent="1" edge="1">
          <mxGeometry width="50" height="50" relative="1" as="geometry">
            <mxPoint x="360.0000000000002" y="505" as="sourcePoint" />
            <mxPoint x="320.0000000000002" y="505" as="targetPoint" />
          </mxGeometry>
        </mxCell>
        <mxCell id="KftTdbNhHA2uExKty297-36" value="alarmHVIL" style="text;html=1;align=center;verticalAlign=middle;resizable=0;points=[];autosize=1;fontSize=8;" parent="1" vertex="1">
          <mxGeometry x="10" y="400" width="50" height="20" as="geometry" />
        </mxCell>
        <mxCell id="KftTdbNhHA2uExKty297-37" value="alarmCurrent" style="text;html=1;align=center;verticalAlign=middle;resizable=0;points=[];autosize=1;fontSize=8;" parent="1" vertex="1">
          <mxGeometry x="250" y="530" width="60" height="20" as="geometry" />
        </mxCell>
        <mxCell id="KftTdbNhHA2uExKty297-38" value="alarmVoltage" style="text;html=1;align=center;verticalAlign=middle;resizable=0;points=[];autosize=1;fontSize=8;" parent="1" vertex="1">
          <mxGeometry x="370" y="495" width="60" height="20" as="geometry" />
        </mxCell>
        <mxCell id="KftTdbNhHA2uExKty297-39" value="chargeData" style="text;html=1;align=center;verticalAlign=middle;resizable=0;points=[];autosize=1;fontSize=8;" parent="1" vertex="1">
          <mxGeometry x="500" y="235" width="60" height="20" as="geometry" />
        </mxCell>
        <mxCell id="KftTdbNhHA2uExKty297-40" value="" style="endArrow=classic;html=1;strokeWidth=1;startArrow=oval;startFill=0;" parent="1" edge="1">
          <mxGeometry width="50" height="50" relative="1" as="geometry">
            <mxPoint x="270.0000000000002" y="425" as="sourcePoint" />
            <mxPoint x="290.0000000000002" y="405" as="targetPoint" />
          </mxGeometry>
        </mxCell>
        <mxCell id="KftTdbNhHA2uExKty297-41" value="voltageData" style="text;html=1;align=center;verticalAlign=middle;resizable=0;points=[];autosize=1;fontSize=8;" parent="1" vertex="1">
          <mxGeometry x="270" y="415" width="60" height="20" as="geometry" />
        </mxCell>
        <mxCell id="KftTdbNhHA2uExKty297-42" value="" style="endArrow=classic;html=1;strokeWidth=1;startArrow=oval;startFill=0;" parent="1" edge="1">
          <mxGeometry width="50" height="50" relative="1" as="geometry">
            <mxPoint x="390.0000000000002" y="415" as="sourcePoint" />
            <mxPoint x="380.0000000000002" y="395" as="targetPoint" />
            <Array as="points">
              <mxPoint x="390" y="405" />
            </Array>
          </mxGeometry>
        </mxCell>
        <mxCell id="KftTdbNhHA2uExKty297-43" value="currentData" style="text;html=1;align=center;verticalAlign=middle;resizable=0;points=[];autosize=1;fontSize=8;" parent="1" vertex="1">
          <mxGeometry x="390" y="415" width="60" height="20" as="geometry" />
        </mxCell>
        <mxCell id="KftTdbNhHA2uExKty297-44" value="" style="endArrow=classic;html=1;strokeWidth=1;startArrow=oval;startFill=0;" parent="1" edge="1">
          <mxGeometry width="50" height="50" relative="1" as="geometry">
            <mxPoint x="500.0000000000002" y="415" as="sourcePoint" />
            <mxPoint x="460.0000000000002" y="395" as="targetPoint" />
            <Array as="points">
              <mxPoint x="490" y="405" />
            </Array>
          </mxGeometry>
        </mxCell>
        <mxCell id="KftTdbNhHA2uExKty297-45" value="temperatureData" style="text;html=1;align=center;verticalAlign=middle;resizable=0;points=[];autosize=1;fontSize=8;" parent="1" vertex="1">
          <mxGeometry x="510" y="415" width="80" height="20" as="geometry" />
        </mxCell>
        <mxCell id="KftTdbNhHA2uExKty297-46" value="" style="endArrow=classic;html=1;strokeWidth=1;startArrow=oval;startFill=0;" parent="1" edge="1">
          <mxGeometry width="50" height="50" relative="1" as="geometry">
            <mxPoint x="650" y="415" as="sourcePoint" />
            <mxPoint x="590.0000000000002" y="395" as="targetPoint" />
            <Array as="points">
              <mxPoint x="630" y="405" />
            </Array>
          </mxGeometry>
        </mxCell>
        <mxCell id="KftTdbNhHA2uExKty297-47" value="dataHVIL" style="text;html=1;align=center;verticalAlign=middle;resizable=0;points=[];autosize=1;fontSize=8;" parent="1" vertex="1">
          <mxGeometry x="620" y="375" width="50" height="20" as="geometry" />
        </mxCell>
        <mxCell id="KftTdbNhHA2uExKty297-48" value="" style="endArrow=classic;html=1;strokeWidth=1;startArrow=oval;startFill=0;" parent="1" edge="1">
          <mxGeometry width="50" height="50" relative="1" as="geometry">
            <mxPoint x="770" y="395" as="sourcePoint" />
            <mxPoint x="760" y="375" as="targetPoint" />
            <Array as="points">
              <mxPoint x="770" y="385" />
            </Array>
          </mxGeometry>
        </mxCell>
        <mxCell id="KftTdbNhHA2uExKty297-49" value="dataSOC" style="text;html=1;align=center;verticalAlign=middle;resizable=0;points=[];autosize=1;fontSize=8;" parent="1" vertex="1">
          <mxGeometry x="770" y="375" width="50" height="20" as="geometry" />
        </mxCell>
        <mxCell id="KftTdbNhHA2uExKty297-50" value="Touch Input" style="rounded=0;whiteSpace=wrap;html=1;" parent="1" vertex="1">
          <mxGeometry x="900" y="285" width="120" height="60" as="geometry" />
        </mxCell>
        <mxCell id="KftTdbNhHA2uExKty297-51" value="" style="endArrow=classic;html=1;strokeWidth=1;startArrow=oval;startFill=1;exitX=0.667;exitY=-0.15;exitDx=0;exitDy=0;exitPerimeter=0;" parent="1" source="KftTdbNhHA2uExKty297-52" edge="1">
          <mxGeometry width="50" height="50" relative="1" as="geometry">
            <mxPoint x="860" y="225.00000000000006" as="sourcePoint" />
            <mxPoint x="880" y="150" as="targetPoint" />
          </mxGeometry>
        </mxCell>
        <mxCell id="KftTdbNhHA2uExKty297-52" value="screenFlag" style="text;html=1;align=center;verticalAlign=middle;resizable=0;points=[];autosize=1;fontSize=8;" parent="1" vertex="1">
          <mxGeometry x="860" y="170" width="60" height="20" as="geometry" />
        </mxCell>
        <mxCell id="KftTdbNhHA2uExKty297-53" value="" style="endArrow=classic;html=1;strokeWidth=1;startArrow=oval;startFill=0;" parent="1" edge="1">
          <mxGeometry width="50" height="50" relative="1" as="geometry">
            <mxPoint x="960" y="250" as="sourcePoint" />
            <mxPoint x="950" y="210" as="targetPoint" />
          </mxGeometry>
        </mxCell>
        <mxCell id="KftTdbNhHA2uExKty297-54" value="touchInputData" style="text;html=1;align=center;verticalAlign=middle;resizable=0;points=[];autosize=1;fontSize=8;" parent="1" vertex="1">
          <mxGeometry x="950" y="215.00000000000006" width="70" height="20" as="geometry" />
        </mxCell>
        <mxCell id="KftTdbNhHA2uExKty297-55" value="" style="endArrow=classic;html=1;strokeWidth=1;startArrow=oval;startFill=0;" parent="1" edge="1">
          <mxGeometry width="50" height="50" relative="1" as="geometry">
            <mxPoint x="575.0000000000002" y="264.9999999999999" as="sourcePoint" />
            <mxPoint x="550.0000000000002" y="204.9999999999999" as="targetPoint" />
          </mxGeometry>
        </mxCell>
        <mxCell id="KftTdbNhHA2uExKty297-56" value="" style="endArrow=classic;html=1;strokeWidth=1;startArrow=oval;startFill=0;" parent="1" edge="1">
          <mxGeometry width="50" height="50" relative="1" as="geometry">
            <mxPoint x="420.0000000000002" y="254.9999999999999" as="sourcePoint" />
            <mxPoint x="430.0000000000002" y="214.9999999999999" as="targetPoint" />
          </mxGeometry>
        </mxCell>
        <mxCell id="KftTdbNhHA2uExKty297-57" value="" style="endArrow=classic;html=1;strokeWidth=1;startArrow=oval;startFill=0;" parent="1" edge="1">
          <mxGeometry width="50" height="50" relative="1" as="geometry">
            <mxPoint x="290.0000000000002" y="254.9999999999999" as="sourcePoint" />
            <mxPoint x="310.0000000000002" y="214.9999999999999" as="targetPoint" />
          </mxGeometry>
        </mxCell>
        <mxCell id="KftTdbNhHA2uExKty297-58" value="" style="endArrow=classic;html=1;strokeWidth=1;startArrow=oval;startFill=0;" parent="1" edge="1">
          <mxGeometry width="50" height="50" relative="1" as="geometry">
            <mxPoint x="140" y="254.9999999999999" as="sourcePoint" />
            <mxPoint x="150" y="210" as="targetPoint" />
          </mxGeometry>
        </mxCell>
        <mxCell id="KftTdbNhHA2uExKty297-65" value="" style="endArrow=classic;html=1;strokeWidth=1;startArrow=oval;startFill=1;" parent="1" edge="1">
          <mxGeometry width="50" height="50" relative="1" as="geometry">
            <mxPoint x="770" y="196" as="sourcePoint" />
            <mxPoint x="770" y="245" as="targetPoint" />
            <Array as="points">
              <mxPoint x="770" y="220" />
            </Array>
          </mxGeometry>
        </mxCell>
        <mxCell id="KftTdbNhHA2uExKty297-66" value="" style="endArrow=classic;html=1;strokeWidth=1;startArrow=oval;startFill=1;" parent="1" edge="1">
          <mxGeometry width="50" height="50" relative="1" as="geometry">
            <mxPoint x="795" y="170.63" as="sourcePoint" />
            <mxPoint x="795" y="220" as="targetPoint" />
            <Array as="points">
              <mxPoint x="795" y="170.13" />
            </Array>
          </mxGeometry>
        </mxCell>
        <mxCell id="KftTdbNhHA2uExKty297-67" value="&lt;font style=&quot;font-size: 8px&quot;&gt;Update Task Flag&lt;/font&gt;" style="text;html=1;align=center;verticalAlign=middle;resizable=0;points=[];autosize=1;rotation=0;" parent="1" vertex="1">
          <mxGeometry x="800" y="180" width="70" height="20" as="geometry" />
        </mxCell>
        <mxCell id="KftTdbNhHA2uExKty297-68" value="&lt;font style=&quot;font-size: 8px&quot;&gt;displayFlag&lt;/font&gt;" style="text;html=1;align=center;verticalAlign=middle;resizable=0;points=[];autosize=1;" parent="1" vertex="1">
          <mxGeometry x="700" y="215" width="60" height="20" as="geometry" />
        </mxCell>
        <mxCell id="KftTdbNhHA2uExKty297-69" value="" style="endArrow=classic;html=1;strokeWidth=1;startArrow=oval;startFill=1;" parent="1" edge="1">
          <mxGeometry width="50" height="50" relative="1" as="geometry">
            <mxPoint x="460" y="180" as="sourcePoint" />
            <mxPoint x="460.0000000000002" y="214.9999999999999" as="targetPoint" />
            <Array as="points" />
          </mxGeometry>
        </mxCell>
        <mxCell id="KftTdbNhHA2uExKty297-70" value="&lt;span style=&quot;font-size: 8px&quot;&gt;contactorFlag&lt;/span&gt;" style="text;html=1;align=center;verticalAlign=middle;resizable=0;points=[];autosize=1;" parent="1" vertex="1">
          <mxGeometry x="460" y="180" width="60" height="20" as="geometry" />
        </mxCell>
        <mxCell id="KftTdbNhHA2uExKty297-71" value="" style="endArrow=classic;html=1;strokeWidth=2;fontSize=8;exitX=0.54;exitY=1.05;exitDx=0;exitDy=0;exitPerimeter=0;entryX=0.5;entryY=0;entryDx=0;entryDy=0;" parent="1" edge="1" target="KftTdbNhHA2uExKty297-77" source="KftTdbNhHA2uExKty297-29">
          <mxGeometry width="50" height="50" relative="1" as="geometry">
            <mxPoint x="86.68000000000006" y="515" as="sourcePoint" />
            <mxPoint x="80" y="570" as="targetPoint" />
          </mxGeometry>
        </mxCell>
        <mxCell id="KftTdbNhHA2uExKty297-72" value="" style="endArrow=classic;html=1;strokeWidth=1;startArrow=oval;startFill=0;" parent="1" edge="1">
          <mxGeometry width="50" height="50" relative="1" as="geometry">
            <mxPoint x="95" y="545" as="sourcePoint" />
            <mxPoint x="85" y="520" as="targetPoint" />
          </mxGeometry>
        </mxCell>
        <mxCell id="KftTdbNhHA2uExKty297-73" value="" style="endArrow=classic;html=1;strokeWidth=1;startArrow=oval;startFill=1;exitX=0.15;exitY=1.15;exitDx=0;exitDy=0;exitPerimeter=0;" parent="1" edge="1">
          <mxGeometry width="50" height="50" relative="1" as="geometry">
            <mxPoint x="38" y="524" as="sourcePoint" />
            <mxPoint x="32.58064516129025" y="545" as="targetPoint" />
            <Array as="points" />
          </mxGeometry>
        </mxCell>
        <mxCell id="KftTdbNhHA2uExKty297-74" value="hvil Alarm" style="text;html=1;align=center;verticalAlign=middle;resizable=0;points=[];autosize=1;" parent="1" vertex="1">
          <mxGeometry x="100" y="530" width="70" height="20" as="geometry" />
        </mxCell>
        <mxCell id="KftTdbNhHA2uExKty297-75" value="hvil Alarm Flag" style="text;html=1;align=center;verticalAlign=middle;resizable=0;points=[];autosize=1;" parent="1" vertex="1">
          <mxGeometry x="-20" y="545" width="100" height="20" as="geometry" />
        </mxCell>
        <mxCell id="KftTdbNhHA2uExKty297-77" value="hvil Interrupt" style="rounded=0;whiteSpace=wrap;html=1;" parent="1" vertex="1">
          <mxGeometry x="20" y="565" width="120" height="60" as="geometry" />
        </mxCell>
        <mxCell id="HoIOViwTMnmnvjEIozFm-1" value="" style="endArrow=classic;html=1;strokeWidth=1;startArrow=oval;startFill=1;" parent="1" edge="1">
          <mxGeometry width="50" height="50" relative="1" as="geometry">
            <mxPoint x="210" y="75.56" as="sourcePoint" />
            <mxPoint x="190" y="100" as="targetPoint" />
            <Array as="points">
              <mxPoint x="210" y="75.06" />
            </Array>
          </mxGeometry>
        </mxCell>
        <mxCell id="HoIOViwTMnmnvjEIozFm-2" value="alarmFlag" style="text;html=1;align=center;verticalAlign=middle;resizable=0;points=[];autosize=1;fontSize=8;" parent="1" vertex="1">
          <mxGeometry x="150" y="70" width="50" height="20" as="geometry" />
        </mxCell>
        <mxCell id="HoIOViwTMnmnvjEIozFm-3" value="measureFlag" style="text;html=1;align=center;verticalAlign=middle;resizable=0;points=[];autosize=1;fontSize=8;" parent="1" vertex="1">
          <mxGeometry x="295" y="150" width="60" height="20" as="geometry" />
        </mxCell>
        <mxCell id="HoIOViwTMnmnvjEIozFm-4" value="" style="endArrow=classic;html=1;strokeWidth=1;startArrow=oval;startFill=1;" parent="1" edge="1">
          <mxGeometry width="50" height="50" relative="1" as="geometry">
            <mxPoint x="360" y="158.02999999999994" as="sourcePoint" />
            <mxPoint x="340" y="182.47" as="targetPoint" />
            <Array as="points">
              <mxPoint x="360" y="157.53" />
            </Array>
          </mxGeometry>
        </mxCell>
        <mxCell id="HoIOViwTMnmnvjEIozFm-7" value="" style="endArrow=classic;html=1;strokeWidth=1;startArrow=oval;startFill=1;" parent="1" edge="1">
          <mxGeometry width="50" height="50" relative="1" as="geometry">
            <mxPoint x="590" y="214.9999999999999" as="sourcePoint" />
            <mxPoint x="590.0000000000005" y="249.9999999999999" as="targetPoint" />
            <Array as="points" />
          </mxGeometry>
        </mxCell>
        <mxCell id="HoIOViwTMnmnvjEIozFm-8" value="socFlag" style="text;html=1;align=center;verticalAlign=middle;resizable=0;points=[];autosize=1;fontSize=8;" parent="1" vertex="1">
          <mxGeometry x="590" y="215" width="40" height="20" as="geometry" />
        </mxCell>
        <mxCell id="HoIOViwTMnmnvjEIozFm-9" value="" style="endArrow=classic;html=1;strokeWidth=1;startArrow=oval;startFill=0;" parent="1" edge="1">
          <mxGeometry width="50" height="50" relative="1" as="geometry">
            <mxPoint x="762.5000000000002" y="159.9999999999999" as="sourcePoint" />
            <mxPoint x="738" y="130" as="targetPoint" />
          </mxGeometry>
        </mxCell>
        <mxCell id="HoIOViwTMnmnvjEIozFm-10" value="displayData" style="text;html=1;align=center;verticalAlign=middle;resizable=0;points=[];autosize=1;fontSize=8;" parent="1" vertex="1">
          <mxGeometry x="700" y="140" width="60" height="20" as="geometry" />
        </mxCell>
        <mxCell id="HoIOViwTMnmnvjEIozFm-11" value="" style="endArrow=classic;html=1;strokeWidth=1;startArrow=oval;startFill=1;" parent="1" edge="1">
          <mxGeometry width="50" height="50" relative="1" as="geometry">
            <mxPoint x="870" y="110" as="sourcePoint" />
            <mxPoint x="900" y="120" as="targetPoint" />
            <Array as="points">
              <mxPoint x="900" y="120" />
            </Array>
          </mxGeometry>
        </mxCell>
        <mxCell id="HoIOViwTMnmnvjEIozFm-12" value="&lt;font style=&quot;font-size: 8px&quot;&gt;touchInputFlag&lt;/font&gt;" style="text;html=1;align=center;verticalAlign=middle;resizable=0;points=[];autosize=1;rotation=0;" parent="1" vertex="1">
          <mxGeometry x="870" y="90" width="70" height="20" as="geometry" />
        </mxCell>
      </root>
    </mxGraphModel>
  </diagram>
</mxfile>
